<mxfile host="app.diagrams.net" modified="2024-01-08T08:15:41.179Z" agent="Mozilla/5.0 (Windows NT 10.0; Win64; x64) AppleWebKit/537.36 (KHTML, like Gecko) Chrome/120.0.0.0 Safari/537.36" version="22.1.17" etag="XfY4SXvdfUE1gtY58g5t" type="github">
  <diagram name="第 1 页" id="DmmzHtXCwU2PIjAmW4nr">
    <mxGraphModel>
      <root>
        <mxCell id="0" />
        <mxCell id="1" parent="0" />
      </root>
    </mxGraphModel>
  </diagram>
</mxfile>
